<svg xmlns="http://www.w3.org/2000/svg" viewBox="0 0 112 200" width="112" height="200" shape-rendering="crispEdges">
  <!-- ながいもくん 16-bit pixel art / pixel=8x8 / 14col x 25row -->

  <!-- === LEAVES (rows 0-5) === -->
  <!-- row 0 -->
  <rect x="40" y="0"  width="8"  height="8" fill="#338833"/>
  <rect x="48" y="0"  width="16" height="8" fill="#55cc44"/>
  <rect x="64" y="0"  width="8"  height="8" fill="#338833"/>
  <!-- row 1 -->
  <rect x="32" y="8"  width="8"  height="8" fill="#338833"/>
  <rect x="40" y="8"  width="32" height="8" fill="#55cc44"/>
  <rect x="72" y="8"  width="8"  height="8" fill="#338833"/>
  <!-- row 2 -->
  <rect x="24" y="16" width="8"  height="8" fill="#338833"/>
  <rect x="32" y="16" width="48" height="8" fill="#55cc44"/>
  <rect x="80" y="16" width="8"  height="8" fill="#338833"/>
  <!-- row 3 -->
  <rect x="24" y="24" width="8"  height="8" fill="#338833"/>
  <rect x="32" y="24" width="48" height="8" fill="#55cc44"/>
  <rect x="80" y="24" width="8"  height="8" fill="#338833"/>
  <!-- row 4 -->
  <rect x="32" y="32" width="8"  height="8" fill="#338833"/>
  <rect x="40" y="32" width="32" height="8" fill="#55cc44"/>
  <rect x="72" y="32" width="8"  height="8" fill="#338833"/>
  <!-- row 5: stem -->
  <rect x="48" y="40" width="16" height="8" fill="#338833"/>

  <!-- === ARMS + SHOULDER (rows 7-8) === -->
  <!-- row 7 -->
  <rect x="8"  y="56" width="16" height="8" fill="#c07838"/>
  <rect x="24" y="56" width="8"  height="8" fill="#a05a28"/>
  <rect x="32" y="56" width="48" height="8" fill="#d4884a"/>
  <rect x="80" y="56" width="8"  height="8" fill="#a05a28"/>
  <rect x="88" y="56" width="16" height="8" fill="#c07838"/>
  <!-- row 8 -->
  <rect x="0"  y="64" width="16" height="8" fill="#c07838"/>
  <rect x="16" y="64" width="8"  height="8" fill="#a05a28"/>
  <rect x="24" y="64" width="64" height="8" fill="#d4884a"/>
  <rect x="88" y="64" width="8"  height="8" fill="#a05a28"/>
  <rect x="96" y="64" width="16" height="8" fill="#c07838"/>

  <!-- === EYES row 9: top row / highlight at col3 & col7 === -->
  <rect x="16" y="72" width="8"  height="8" fill="#a05a28"/>
  <rect x="24" y="72" width="8"  height="8" fill="#ffffff"/>
  <rect x="32" y="72" width="16" height="8" fill="#f0ece8"/>
  <rect x="48" y="72" width="8"  height="8" fill="#d4884a"/>
  <rect x="56" y="72" width="8"  height="8" fill="#ffffff"/>
  <rect x="64" y="72" width="16" height="8" fill="#f0ece8"/>
  <rect x="80" y="72" width="8"  height="8" fill="#d4884a"/>
  <rect x="88" y="72" width="8"  height="8" fill="#a05a28"/>

  <!-- === EYES row 10: mid row / all white === -->
  <rect x="16" y="80" width="8"  height="8" fill="#a05a28"/>
  <rect x="24" y="80" width="24" height="8" fill="#f0ece8"/>
  <rect x="48" y="80" width="8"  height="8" fill="#d4884a"/>
  <rect x="56" y="80" width="24" height="8" fill="#f0ece8"/>
  <rect x="80" y="80" width="8"  height="8" fill="#d4884a"/>
  <rect x="88" y="80" width="8"  height="8" fill="#a05a28"/>

  <!-- === EYES row 11: bottom row / pupils === -->
  <rect x="16" y="88" width="8"  height="8" fill="#a05a28"/>
  <rect x="24" y="88" width="16" height="8" fill="#f0ece8"/>
  <rect x="40" y="88" width="8"  height="8" fill="#220800"/>
  <rect x="48" y="88" width="8"  height="8" fill="#d4884a"/>
  <rect x="56" y="88" width="16" height="8" fill="#f0ece8"/>
  <rect x="72" y="88" width="8"  height="8" fill="#220800"/>
  <rect x="80" y="88" width="8"  height="8" fill="#d4884a"/>
  <rect x="88" y="88" width="8"  height="8" fill="#a05a28"/>

  <!-- === CHEEKS row 12 === -->
  <rect x="16" y="96" width="8"  height="8" fill="#a05a28"/>
  <rect x="24" y="96" width="16" height="8" fill="#ff9999"/>
  <rect x="40" y="96" width="24" height="8" fill="#d4884a"/>
  <rect x="64" y="96" width="16" height="8" fill="#ff9999"/>
  <rect x="80" y="96" width="8"  height="8" fill="#d4884a"/>
  <rect x="88" y="96" width="8"  height="8" fill="#a05a28"/>

  <!-- === BODY plain row 13 === -->
  <rect x="16" y="104" width="8"  height="8" fill="#a05a28"/>
  <rect x="24" y="104" width="64" height="8" fill="#d4884a"/>
  <rect x="88" y="104" width="8"  height="8" fill="#a05a28"/>

  <!-- === MOUTH row 14: corners === -->
  <rect x="16" y="112" width="8"  height="8" fill="#a05a28"/>
  <rect x="24" y="112" width="8"  height="8" fill="#d4884a"/>
  <rect x="32" y="112" width="8"  height="8" fill="#7a3820"/>
  <rect x="40" y="112" width="24" height="8" fill="#d4884a"/>
  <rect x="64" y="112" width="8"  height="8" fill="#7a3820"/>
  <rect x="72" y="112" width="16" height="8" fill="#d4884a"/>
  <rect x="88" y="112" width="8"  height="8" fill="#a05a28"/>

  <!-- === MOUTH row 15: curve === -->
  <rect x="16" y="120" width="8"  height="8" fill="#a05a28"/>
  <rect x="24" y="120" width="16" height="8" fill="#d4884a"/>
  <rect x="40" y="120" width="32" height="8" fill="#7a3820"/>
  <rect x="72" y="120" width="16" height="8" fill="#d4884a"/>
  <rect x="88" y="120" width="8"  height="8" fill="#a05a28"/>

  <!-- === BODY rows 16-18 === -->
  <rect x="16" y="128" width="8"  height="8" fill="#a05a28"/>
  <rect x="24" y="128" width="64" height="8" fill="#d4884a"/>
  <rect x="88" y="128" width="8"  height="8" fill="#a05a28"/>

  <rect x="16" y="136" width="8"  height="8" fill="#a05a28"/>
  <rect x="24" y="136" width="64" height="8" fill="#d4884a"/>
  <rect x="88" y="136" width="8"  height="8" fill="#a05a28"/>

  <!-- row 18: yam texture nodes -->
  <rect x="16" y="144" width="8"  height="8" fill="#a05a28"/>
  <rect x="24" y="144" width="8"  height="8" fill="#f2c080"/>
  <rect x="32" y="144" width="16" height="8" fill="#d4884a"/>
  <rect x="48" y="144" width="8"  height="8" fill="#b06830"/>
  <rect x="56" y="144" width="16" height="8" fill="#d4884a"/>
  <rect x="72" y="144" width="8"  height="8" fill="#f2c080"/>
  <rect x="80" y="144" width="8"  height="8" fill="#d4884a"/>
  <rect x="88" y="144" width="8"  height="8" fill="#a05a28"/>

  <!-- === BODY taper rows 19-22 === -->
  <!-- row 19 -->
  <rect x="24" y="152" width="8"  height="8" fill="#a05a28"/>
  <rect x="32" y="152" width="48" height="8" fill="#d4884a"/>
  <rect x="80" y="152" width="8"  height="8" fill="#a05a28"/>

  <!-- row 20: texture node -->
  <rect x="24" y="160" width="8"  height="8" fill="#a05a28"/>
  <rect x="32" y="160" width="8"  height="8" fill="#d4884a"/>
  <rect x="40" y="160" width="8"  height="8" fill="#b06830"/>
  <rect x="48" y="160" width="24" height="8" fill="#d4884a"/>
  <rect x="72" y="160" width="8"  height="8" fill="#b06830"/>
  <rect x="80" y="160" width="8"  height="8" fill="#a05a28"/>

  <!-- row 21 -->
  <rect x="32" y="168" width="8"  height="8" fill="#a05a28"/>
  <rect x="40" y="168" width="32" height="8" fill="#d4884a"/>
  <rect x="72" y="168" width="8"  height="8" fill="#a05a28"/>

  <!-- row 22 -->
  <rect x="32" y="176" width="8"  height="8" fill="#a05a28"/>
  <rect x="40" y="176" width="32" height="8" fill="#d4884a"/>
  <rect x="72" y="176" width="8"  height="8" fill="#a05a28"/>

  <!-- === FEET rows 23-24 === -->
  <!-- row 23 -->
  <rect x="24" y="184" width="8"  height="8" fill="#a05a28"/>
  <rect x="32" y="184" width="16" height="8" fill="#b86830"/>
  <rect x="56" y="184" width="16" height="8" fill="#b86830"/>
  <rect x="72" y="184" width="8"  height="8" fill="#a05a28"/>

  <!-- row 24 -->
  <rect x="24" y="192" width="8"  height="8" fill="#a05a28"/>
  <rect x="32" y="192" width="16" height="8" fill="#b86830"/>
  <rect x="56" y="192" width="16" height="8" fill="#b86830"/>
  <rect x="72" y="192" width="8"  height="8" fill="#a05a28"/>
</svg>
